<mxfile host="Electron" modified="2024-04-05T18:14:09.289Z" agent="Mozilla/5.0 (Windows NT 10.0; Win64; x64) AppleWebKit/537.36 (KHTML, like Gecko) draw.io/24.1.0 Chrome/120.0.6099.109 Electron/28.1.0 Safari/537.36" etag="vBWd4U6u0SNyxhXm1c0U" version="24.1.0" type="device">
  <diagram name="Página-1" id="QyRxI24cLnZ9aJBGyigu">
    <mxGraphModel dx="875" dy="524" grid="1" gridSize="10" guides="1" tooltips="1" connect="1" arrows="1" fold="1" page="1" pageScale="1" pageWidth="827" pageHeight="1169" math="0" shadow="0">
      <root>
        <mxCell id="0" />
        <mxCell id="1" parent="0" />
        <mxCell id="2bkhUdakvjU-Ax5H8vHE-1" value="&lt;div&gt;&lt;span style=&quot;background-color: initial;&quot;&gt;&quot;Diagrama de Caso de Uso: Administración de Usuarios, Rutas y Puntos de Control por el Admin&quot;&lt;/span&gt;&lt;/div&gt;&lt;div&gt;&lt;span style=&quot;background-color: initial;&quot;&gt;Número: DCU01&lt;/span&gt;&lt;br&gt;&lt;/div&gt;" style="text;html=1;align=left;verticalAlign=middle;whiteSpace=wrap;rounded=0;" vertex="1" parent="1">
          <mxGeometry x="266" y="40" width="296" height="30" as="geometry" />
        </mxCell>
        <mxCell id="2bkhUdakvjU-Ax5H8vHE-54" value="" style="rounded=0;whiteSpace=wrap;html=1;" vertex="1" parent="1">
          <mxGeometry x="131" y="160" width="569" height="800" as="geometry" />
        </mxCell>
        <mxCell id="2bkhUdakvjU-Ax5H8vHE-55" value="Crear rutas" style="ellipse;whiteSpace=wrap;html=1;" vertex="1" parent="1">
          <mxGeometry x="160" y="170" width="100" height="50" as="geometry" />
        </mxCell>
        <mxCell id="2bkhUdakvjU-Ax5H8vHE-56" value="Crear puntos de control" style="ellipse;whiteSpace=wrap;html=1;" vertex="1" parent="1">
          <mxGeometry x="155" y="340" width="100" height="50" as="geometry" />
        </mxCell>
        <mxCell id="2bkhUdakvjU-Ax5H8vHE-57" value="Crear usuario" style="ellipse;whiteSpace=wrap;html=1;" vertex="1" parent="1">
          <mxGeometry x="150" y="530" width="100" height="50" as="geometry" />
        </mxCell>
        <mxCell id="2bkhUdakvjU-Ax5H8vHE-58" style="rounded=0;orthogonalLoop=1;jettySize=auto;html=1;exitX=0.5;exitY=0;exitDx=0;exitDy=0;entryX=0.5;entryY=1;entryDx=0;entryDy=0;dashed=1;" edge="1" parent="1" source="2bkhUdakvjU-Ax5H8vHE-60" target="2bkhUdakvjU-Ax5H8vHE-66">
          <mxGeometry relative="1" as="geometry" />
        </mxCell>
        <mxCell id="2bkhUdakvjU-Ax5H8vHE-59" value="&amp;lt;&amp;lt;extend&amp;gt;&amp;gt;" style="edgeLabel;html=1;align=center;verticalAlign=middle;resizable=0;points=[];" vertex="1" connectable="0" parent="2bkhUdakvjU-Ax5H8vHE-58">
          <mxGeometry x="-0.0761" relative="1" as="geometry">
            <mxPoint as="offset" />
          </mxGeometry>
        </mxCell>
        <mxCell id="2bkhUdakvjU-Ax5H8vHE-60" value="ingresar datos nuevos" style="ellipse;whiteSpace=wrap;html=1;" vertex="1" parent="1">
          <mxGeometry x="580" y="900" width="100" height="50" as="geometry" />
        </mxCell>
        <mxCell id="2bkhUdakvjU-Ax5H8vHE-61" value="crea tarifas" style="ellipse;whiteSpace=wrap;html=1;" vertex="1" parent="1">
          <mxGeometry x="155" y="710" width="100" height="50" as="geometry" />
        </mxCell>
        <mxCell id="2bkhUdakvjU-Ax5H8vHE-62" style="rounded=0;orthogonalLoop=1;jettySize=auto;html=1;exitX=0.5;exitY=0;exitDx=0;exitDy=0;dashed=1;entryX=0.8;entryY=1;entryDx=0;entryDy=0;entryPerimeter=0;startArrow=classic;startFill=1;endArrow=none;endFill=0;" edge="1" parent="1" source="2bkhUdakvjU-Ax5H8vHE-66" target="2bkhUdakvjU-Ax5H8vHE-55">
          <mxGeometry relative="1" as="geometry">
            <mxPoint x="300" y="300" as="targetPoint" />
          </mxGeometry>
        </mxCell>
        <mxCell id="2bkhUdakvjU-Ax5H8vHE-63" value="&amp;lt;&amp;lt;include&amp;gt;&amp;gt;" style="edgeLabel;html=1;align=center;verticalAlign=middle;resizable=0;points=[];" vertex="1" connectable="0" parent="2bkhUdakvjU-Ax5H8vHE-62">
          <mxGeometry x="0.1178" y="-1" relative="1" as="geometry">
            <mxPoint as="offset" />
          </mxGeometry>
        </mxCell>
        <mxCell id="2bkhUdakvjU-Ax5H8vHE-64" style="rounded=0;orthogonalLoop=1;jettySize=auto;html=1;exitX=0;exitY=0.5;exitDx=0;exitDy=0;entryX=1;entryY=0.5;entryDx=0;entryDy=0;dashed=1;" edge="1" parent="1" source="2bkhUdakvjU-Ax5H8vHE-66" target="2bkhUdakvjU-Ax5H8vHE-96">
          <mxGeometry relative="1" as="geometry" />
        </mxCell>
        <mxCell id="2bkhUdakvjU-Ax5H8vHE-65" value="&amp;lt;&amp;lt;include&amp;gt;&amp;gt;" style="edgeLabel;html=1;align=center;verticalAlign=middle;resizable=0;points=[];" vertex="1" connectable="0" parent="2bkhUdakvjU-Ax5H8vHE-64">
          <mxGeometry x="0.1301" y="1" relative="1" as="geometry">
            <mxPoint as="offset" />
          </mxGeometry>
        </mxCell>
        <mxCell id="2bkhUdakvjU-Ax5H8vHE-106" style="rounded=0;orthogonalLoop=1;jettySize=auto;html=1;exitX=0;exitY=0.5;exitDx=0;exitDy=0;dashed=1;startArrow=classic;startFill=1;endArrow=none;endFill=0;" edge="1" parent="1" source="2bkhUdakvjU-Ax5H8vHE-66" target="2bkhUdakvjU-Ax5H8vHE-61">
          <mxGeometry relative="1" as="geometry" />
        </mxCell>
        <mxCell id="2bkhUdakvjU-Ax5H8vHE-107" value="&amp;lt;&amp;lt;include&amp;gt;&amp;gt;" style="edgeLabel;html=1;align=center;verticalAlign=middle;resizable=0;points=[];" vertex="1" connectable="0" parent="2bkhUdakvjU-Ax5H8vHE-106">
          <mxGeometry x="-0.0738" relative="1" as="geometry">
            <mxPoint as="offset" />
          </mxGeometry>
        </mxCell>
        <mxCell id="2bkhUdakvjU-Ax5H8vHE-66" value="modificar datos" style="ellipse;whiteSpace=wrap;html=1;" vertex="1" parent="1">
          <mxGeometry x="430" y="830" width="100" height="50" as="geometry" />
        </mxCell>
        <mxCell id="2bkhUdakvjU-Ax5H8vHE-67" style="rounded=0;orthogonalLoop=1;jettySize=auto;html=1;exitX=0.5;exitY=0.5;exitDx=0;exitDy=0;exitPerimeter=0;endArrow=none;endFill=0;" edge="1" parent="1" source="2bkhUdakvjU-Ax5H8vHE-71" target="2bkhUdakvjU-Ax5H8vHE-55">
          <mxGeometry relative="1" as="geometry" />
        </mxCell>
        <mxCell id="2bkhUdakvjU-Ax5H8vHE-68" style="rounded=0;orthogonalLoop=1;jettySize=auto;html=1;exitX=0.5;exitY=0.5;exitDx=0;exitDy=0;exitPerimeter=0;endArrow=none;endFill=0;" edge="1" parent="1" source="2bkhUdakvjU-Ax5H8vHE-71" target="2bkhUdakvjU-Ax5H8vHE-56">
          <mxGeometry relative="1" as="geometry" />
        </mxCell>
        <mxCell id="2bkhUdakvjU-Ax5H8vHE-69" style="rounded=0;orthogonalLoop=1;jettySize=auto;html=1;exitX=0.5;exitY=0.5;exitDx=0;exitDy=0;exitPerimeter=0;endArrow=none;endFill=0;" edge="1" parent="1" source="2bkhUdakvjU-Ax5H8vHE-71" target="2bkhUdakvjU-Ax5H8vHE-57">
          <mxGeometry relative="1" as="geometry" />
        </mxCell>
        <mxCell id="2bkhUdakvjU-Ax5H8vHE-70" style="rounded=0;orthogonalLoop=1;jettySize=auto;html=1;exitX=0.5;exitY=0.5;exitDx=0;exitDy=0;exitPerimeter=0;endArrow=none;endFill=0;" edge="1" parent="1" source="2bkhUdakvjU-Ax5H8vHE-71" target="2bkhUdakvjU-Ax5H8vHE-61">
          <mxGeometry relative="1" as="geometry" />
        </mxCell>
        <mxCell id="2bkhUdakvjU-Ax5H8vHE-71" value="usuario admin" style="shape=umlActor;verticalLabelPosition=bottom;verticalAlign=top;html=1;outlineConnect=0;" vertex="1" parent="1">
          <mxGeometry x="40" y="350" width="30" height="60" as="geometry" />
        </mxCell>
        <mxCell id="2bkhUdakvjU-Ax5H8vHE-72" style="rounded=0;orthogonalLoop=1;jettySize=auto;html=1;exitX=0;exitY=0.5;exitDx=0;exitDy=0;dashed=1;" edge="1" parent="1" source="2bkhUdakvjU-Ax5H8vHE-81" target="2bkhUdakvjU-Ax5H8vHE-55">
          <mxGeometry relative="1" as="geometry" />
        </mxCell>
        <mxCell id="2bkhUdakvjU-Ax5H8vHE-73" value="&amp;lt;&amp;lt;extend&amp;gt;&amp;gt;" style="edgeLabel;html=1;align=center;verticalAlign=middle;resizable=0;points=[];" vertex="1" connectable="0" parent="2bkhUdakvjU-Ax5H8vHE-72">
          <mxGeometry x="0.0117" y="1" relative="1" as="geometry">
            <mxPoint as="offset" />
          </mxGeometry>
        </mxCell>
        <mxCell id="2bkhUdakvjU-Ax5H8vHE-74" style="rounded=0;orthogonalLoop=1;jettySize=auto;html=1;exitX=0;exitY=1;exitDx=0;exitDy=0;dashed=1;" edge="1" parent="1" source="2bkhUdakvjU-Ax5H8vHE-81" target="2bkhUdakvjU-Ax5H8vHE-56">
          <mxGeometry relative="1" as="geometry" />
        </mxCell>
        <mxCell id="2bkhUdakvjU-Ax5H8vHE-75" value="&amp;lt;&amp;lt;extend&amp;gt;&amp;gt;" style="edgeLabel;html=1;align=center;verticalAlign=middle;resizable=0;points=[];" vertex="1" connectable="0" parent="2bkhUdakvjU-Ax5H8vHE-74">
          <mxGeometry x="-0.2639" y="-1" relative="1" as="geometry">
            <mxPoint as="offset" />
          </mxGeometry>
        </mxCell>
        <mxCell id="2bkhUdakvjU-Ax5H8vHE-76" style="rounded=0;orthogonalLoop=1;jettySize=auto;html=1;exitX=0.5;exitY=1;exitDx=0;exitDy=0;dashed=1;" edge="1" parent="1" source="2bkhUdakvjU-Ax5H8vHE-81" target="2bkhUdakvjU-Ax5H8vHE-61">
          <mxGeometry relative="1" as="geometry" />
        </mxCell>
        <mxCell id="2bkhUdakvjU-Ax5H8vHE-77" value="&amp;lt;&amp;lt;extend&amp;gt;&amp;gt;" style="edgeLabel;html=1;align=center;verticalAlign=middle;resizable=0;points=[];" vertex="1" connectable="0" parent="2bkhUdakvjU-Ax5H8vHE-76">
          <mxGeometry x="-0.3064" relative="1" as="geometry">
            <mxPoint as="offset" />
          </mxGeometry>
        </mxCell>
        <mxCell id="2bkhUdakvjU-Ax5H8vHE-78" style="rounded=0;orthogonalLoop=1;jettySize=auto;html=1;exitX=0;exitY=1;exitDx=0;exitDy=0;dashed=1;" edge="1" parent="1" source="2bkhUdakvjU-Ax5H8vHE-81" target="2bkhUdakvjU-Ax5H8vHE-57">
          <mxGeometry relative="1" as="geometry" />
        </mxCell>
        <mxCell id="2bkhUdakvjU-Ax5H8vHE-79" value="&amp;lt;&amp;lt;extend&amp;gt;&amp;gt;" style="edgeLabel;html=1;align=center;verticalAlign=middle;resizable=0;points=[];" vertex="1" connectable="0" parent="2bkhUdakvjU-Ax5H8vHE-78">
          <mxGeometry x="-0.2623" y="1" relative="1" as="geometry">
            <mxPoint as="offset" />
          </mxGeometry>
        </mxCell>
        <mxCell id="2bkhUdakvjU-Ax5H8vHE-80" style="rounded=0;orthogonalLoop=1;jettySize=auto;html=1;exitX=0.5;exitY=1;exitDx=0;exitDy=0;entryX=1;entryY=0;entryDx=0;entryDy=0;dashed=1;" edge="1" parent="1" source="2bkhUdakvjU-Ax5H8vHE-81" target="2bkhUdakvjU-Ax5H8vHE-96">
          <mxGeometry relative="1" as="geometry" />
        </mxCell>
        <mxCell id="2bkhUdakvjU-Ax5H8vHE-81" value="ingresa datos" style="ellipse;whiteSpace=wrap;html=1;" vertex="1" parent="1">
          <mxGeometry x="420" y="180" width="100" height="50" as="geometry" />
        </mxCell>
        <mxCell id="2bkhUdakvjU-Ax5H8vHE-104" style="rounded=0;orthogonalLoop=1;jettySize=auto;html=1;exitX=0.5;exitY=0.5;exitDx=0;exitDy=0;exitPerimeter=0;endArrow=none;endFill=0;" edge="1" parent="1" source="2bkhUdakvjU-Ax5H8vHE-82" target="2bkhUdakvjU-Ax5H8vHE-102">
          <mxGeometry relative="1" as="geometry" />
        </mxCell>
        <mxCell id="2bkhUdakvjU-Ax5H8vHE-82" value="sistema DB" style="shape=umlActor;verticalLabelPosition=bottom;verticalAlign=top;html=1;outlineConnect=0;" vertex="1" parent="1">
          <mxGeometry x="720" y="270" width="30" height="60" as="geometry" />
        </mxCell>
        <mxCell id="2bkhUdakvjU-Ax5H8vHE-100" style="rounded=0;orthogonalLoop=1;jettySize=auto;html=1;exitX=0.5;exitY=0.5;exitDx=0;exitDy=0;exitPerimeter=0;endArrow=none;endFill=0;" edge="1" parent="1" source="2bkhUdakvjU-Ax5H8vHE-83" target="2bkhUdakvjU-Ax5H8vHE-99">
          <mxGeometry relative="1" as="geometry" />
        </mxCell>
        <mxCell id="2bkhUdakvjU-Ax5H8vHE-105" style="rounded=0;orthogonalLoop=1;jettySize=auto;html=1;exitX=0.5;exitY=0.5;exitDx=0;exitDy=0;exitPerimeter=0;endArrow=none;endFill=0;" edge="1" parent="1" source="2bkhUdakvjU-Ax5H8vHE-83" target="2bkhUdakvjU-Ax5H8vHE-101">
          <mxGeometry relative="1" as="geometry" />
        </mxCell>
        <mxCell id="2bkhUdakvjU-Ax5H8vHE-83" value="sistema api" style="shape=umlActor;verticalLabelPosition=bottom;verticalAlign=top;html=1;outlineConnect=0;" vertex="1" parent="1">
          <mxGeometry x="730" y="500" width="30" height="60" as="geometry" />
        </mxCell>
        <mxCell id="2bkhUdakvjU-Ax5H8vHE-86" style="rounded=0;orthogonalLoop=1;jettySize=auto;html=1;exitX=0;exitY=0;exitDx=0;exitDy=0;entryX=0.944;entryY=0.684;entryDx=0;entryDy=0;entryPerimeter=0;dashed=1;startArrow=classic;startFill=1;endArrow=none;endFill=0;" edge="1" parent="1" source="2bkhUdakvjU-Ax5H8vHE-66" target="2bkhUdakvjU-Ax5H8vHE-57">
          <mxGeometry relative="1" as="geometry" />
        </mxCell>
        <mxCell id="2bkhUdakvjU-Ax5H8vHE-87" value="&amp;lt;&amp;lt;include&amp;gt;&amp;gt;" style="edgeLabel;html=1;align=center;verticalAlign=middle;resizable=0;points=[];" vertex="1" connectable="0" parent="2bkhUdakvjU-Ax5H8vHE-86">
          <mxGeometry x="-0.0685" relative="1" as="geometry">
            <mxPoint as="offset" />
          </mxGeometry>
        </mxCell>
        <mxCell id="2bkhUdakvjU-Ax5H8vHE-88" style="rounded=0;orthogonalLoop=1;jettySize=auto;html=1;exitX=0.5;exitY=0;exitDx=0;exitDy=0;entryX=0.972;entryY=0.422;entryDx=0;entryDy=0;entryPerimeter=0;dashed=1;startArrow=classic;startFill=1;endArrow=none;endFill=0;" edge="1" parent="1" source="2bkhUdakvjU-Ax5H8vHE-66" target="2bkhUdakvjU-Ax5H8vHE-56">
          <mxGeometry relative="1" as="geometry" />
        </mxCell>
        <mxCell id="2bkhUdakvjU-Ax5H8vHE-89" value="&amp;lt;&amp;lt;include&amp;gt;&amp;gt;" style="edgeLabel;html=1;align=center;verticalAlign=middle;resizable=0;points=[];" vertex="1" connectable="0" parent="2bkhUdakvjU-Ax5H8vHE-88">
          <mxGeometry x="0.0256" y="1" relative="1" as="geometry">
            <mxPoint as="offset" />
          </mxGeometry>
        </mxCell>
        <mxCell id="2bkhUdakvjU-Ax5H8vHE-90" style="rounded=0;orthogonalLoop=1;jettySize=auto;html=1;exitX=0;exitY=0.5;exitDx=0;exitDy=0;dashed=1;dashPattern=8 8;" edge="1" parent="1" source="2bkhUdakvjU-Ax5H8vHE-91" target="2bkhUdakvjU-Ax5H8vHE-56">
          <mxGeometry relative="1" as="geometry" />
        </mxCell>
        <mxCell id="2bkhUdakvjU-Ax5H8vHE-113" value="&amp;lt;&amp;lt;include&amp;gt;&amp;gt;" style="edgeLabel;html=1;align=center;verticalAlign=middle;resizable=0;points=[];" vertex="1" connectable="0" parent="2bkhUdakvjU-Ax5H8vHE-90">
          <mxGeometry x="-0.2395" y="-1" relative="1" as="geometry">
            <mxPoint as="offset" />
          </mxGeometry>
        </mxCell>
        <mxCell id="2bkhUdakvjU-Ax5H8vHE-116" style="rounded=0;orthogonalLoop=1;jettySize=auto;html=1;exitX=0.5;exitY=1;exitDx=0;exitDy=0;startArrow=none;startFill=0;dashed=1;" edge="1" parent="1" source="2bkhUdakvjU-Ax5H8vHE-91">
          <mxGeometry relative="1" as="geometry">
            <mxPoint x="570" y="640" as="targetPoint" />
          </mxGeometry>
        </mxCell>
        <mxCell id="2bkhUdakvjU-Ax5H8vHE-118" value="&amp;lt;&amp;lt;include&amp;gt;&amp;gt;" style="edgeLabel;html=1;align=center;verticalAlign=middle;resizable=0;points=[];" vertex="1" connectable="0" parent="2bkhUdakvjU-Ax5H8vHE-116">
          <mxGeometry x="-0.4077" relative="1" as="geometry">
            <mxPoint as="offset" />
          </mxGeometry>
        </mxCell>
        <mxCell id="2bkhUdakvjU-Ax5H8vHE-91" value="eliminar" style="ellipse;whiteSpace=wrap;html=1;" vertex="1" parent="1">
          <mxGeometry x="490" y="420" width="110" height="50" as="geometry" />
        </mxCell>
        <mxCell id="2bkhUdakvjU-Ax5H8vHE-92" style="rounded=0;orthogonalLoop=1;jettySize=auto;html=1;exitX=0;exitY=0.5;exitDx=0;exitDy=0;entryX=1;entryY=0.5;entryDx=0;entryDy=0;dashed=1;dashPattern=8 8;endArrow=none;endFill=0;startArrow=classic;startFill=1;" edge="1" parent="1" source="2bkhUdakvjU-Ax5H8vHE-94" target="2bkhUdakvjU-Ax5H8vHE-57">
          <mxGeometry relative="1" as="geometry" />
        </mxCell>
        <mxCell id="2bkhUdakvjU-Ax5H8vHE-93" value="&amp;lt;&amp;lt;include&amp;gt;&amp;gt;" style="edgeLabel;html=1;align=center;verticalAlign=middle;resizable=0;points=[];" vertex="1" connectable="0" parent="2bkhUdakvjU-Ax5H8vHE-92">
          <mxGeometry x="-0.5434" y="3" relative="1" as="geometry">
            <mxPoint as="offset" />
          </mxGeometry>
        </mxCell>
        <mxCell id="2bkhUdakvjU-Ax5H8vHE-115" style="rounded=0;orthogonalLoop=1;jettySize=auto;html=1;exitX=0.5;exitY=1;exitDx=0;exitDy=0;startArrow=none;startFill=0;dashed=1;" edge="1" parent="1" source="2bkhUdakvjU-Ax5H8vHE-94" target="2bkhUdakvjU-Ax5H8vHE-99">
          <mxGeometry relative="1" as="geometry" />
        </mxCell>
        <mxCell id="2bkhUdakvjU-Ax5H8vHE-117" value="&amp;lt;&amp;lt;include&amp;gt;&amp;gt;" style="edgeLabel;html=1;align=center;verticalAlign=middle;resizable=0;points=[];" vertex="1" connectable="0" parent="2bkhUdakvjU-Ax5H8vHE-115">
          <mxGeometry x="-0.322" y="1" relative="1" as="geometry">
            <mxPoint as="offset" />
          </mxGeometry>
        </mxCell>
        <mxCell id="2bkhUdakvjU-Ax5H8vHE-94" value="desactivar" style="ellipse;whiteSpace=wrap;html=1;" vertex="1" parent="1">
          <mxGeometry x="450" y="535" width="110" height="50" as="geometry" />
        </mxCell>
        <mxCell id="2bkhUdakvjU-Ax5H8vHE-95" style="rounded=0;orthogonalLoop=1;jettySize=auto;html=1;exitX=0;exitY=0.5;exitDx=0;exitDy=0;entryX=0.758;entryY=0.898;entryDx=0;entryDy=0;entryPerimeter=0;dashed=1;dashPattern=8 8;startArrow=classic;startFill=1;endArrow=none;endFill=0;" edge="1" parent="1" source="2bkhUdakvjU-Ax5H8vHE-94" target="2bkhUdakvjU-Ax5H8vHE-55">
          <mxGeometry relative="1" as="geometry" />
        </mxCell>
        <mxCell id="2bkhUdakvjU-Ax5H8vHE-98" value="&amp;lt;&amp;lt;include&amp;gt;&amp;gt;" style="edgeLabel;html=1;align=center;verticalAlign=middle;resizable=0;points=[];" vertex="1" connectable="0" parent="2bkhUdakvjU-Ax5H8vHE-95">
          <mxGeometry x="0.5482" y="-3" relative="1" as="geometry">
            <mxPoint as="offset" />
          </mxGeometry>
        </mxCell>
        <mxCell id="2bkhUdakvjU-Ax5H8vHE-108" style="rounded=0;orthogonalLoop=1;jettySize=auto;html=1;exitX=1;exitY=0;exitDx=0;exitDy=0;dashed=1;" edge="1" parent="1" source="2bkhUdakvjU-Ax5H8vHE-96" target="2bkhUdakvjU-Ax5H8vHE-99">
          <mxGeometry relative="1" as="geometry" />
        </mxCell>
        <mxCell id="2bkhUdakvjU-Ax5H8vHE-96" value="crear destino" style="ellipse;whiteSpace=wrap;html=1;" vertex="1" parent="1">
          <mxGeometry x="145" y="860" width="110" height="50" as="geometry" />
        </mxCell>
        <mxCell id="2bkhUdakvjU-Ax5H8vHE-97" style="rounded=0;orthogonalLoop=1;jettySize=auto;html=1;exitX=0.5;exitY=0.5;exitDx=0;exitDy=0;exitPerimeter=0;entryX=0.033;entryY=0.36;entryDx=0;entryDy=0;entryPerimeter=0;endArrow=none;endFill=0;" edge="1" parent="1" source="2bkhUdakvjU-Ax5H8vHE-71" target="2bkhUdakvjU-Ax5H8vHE-96">
          <mxGeometry relative="1" as="geometry" />
        </mxCell>
        <mxCell id="2bkhUdakvjU-Ax5H8vHE-111" style="rounded=0;orthogonalLoop=1;jettySize=auto;html=1;exitX=0.5;exitY=0;exitDx=0;exitDy=0;entryX=0.5;entryY=1;entryDx=0;entryDy=0;dashed=1;" edge="1" parent="1" source="2bkhUdakvjU-Ax5H8vHE-99" target="2bkhUdakvjU-Ax5H8vHE-101">
          <mxGeometry relative="1" as="geometry" />
        </mxCell>
        <mxCell id="2bkhUdakvjU-Ax5H8vHE-112" value="&amp;lt;&amp;lt;include&amp;gt;&amp;gt;" style="edgeLabel;html=1;align=center;verticalAlign=middle;resizable=0;points=[];" vertex="1" connectable="0" parent="2bkhUdakvjU-Ax5H8vHE-111">
          <mxGeometry x="-0.2509" y="3" relative="1" as="geometry">
            <mxPoint as="offset" />
          </mxGeometry>
        </mxCell>
        <mxCell id="2bkhUdakvjU-Ax5H8vHE-99" value="enviar datos" style="ellipse;whiteSpace=wrap;html=1;" vertex="1" parent="1">
          <mxGeometry x="520" y="640" width="110" height="50" as="geometry" />
        </mxCell>
        <mxCell id="2bkhUdakvjU-Ax5H8vHE-119" style="rounded=0;orthogonalLoop=1;jettySize=auto;html=1;exitX=0.5;exitY=0;exitDx=0;exitDy=0;dashed=1;" edge="1" parent="1" source="2bkhUdakvjU-Ax5H8vHE-101" target="2bkhUdakvjU-Ax5H8vHE-102">
          <mxGeometry relative="1" as="geometry" />
        </mxCell>
        <mxCell id="2bkhUdakvjU-Ax5H8vHE-120" value="&amp;lt;&amp;lt;include&amp;gt;&amp;gt;" style="edgeLabel;html=1;align=center;verticalAlign=middle;resizable=0;points=[];" vertex="1" connectable="0" parent="2bkhUdakvjU-Ax5H8vHE-119">
          <mxGeometry x="-0.0925" y="-1" relative="1" as="geometry">
            <mxPoint as="offset" />
          </mxGeometry>
        </mxCell>
        <mxCell id="2bkhUdakvjU-Ax5H8vHE-101" value="validar info" style="ellipse;whiteSpace=wrap;html=1;" vertex="1" parent="1">
          <mxGeometry x="570" y="370" width="110" height="50" as="geometry" />
        </mxCell>
        <mxCell id="2bkhUdakvjU-Ax5H8vHE-102" value="almacenar datos" style="ellipse;whiteSpace=wrap;html=1;" vertex="1" parent="1">
          <mxGeometry x="580" y="170" width="110" height="50" as="geometry" />
        </mxCell>
        <mxCell id="2bkhUdakvjU-Ax5H8vHE-103" style="rounded=0;orthogonalLoop=1;jettySize=auto;html=1;exitX=0.5;exitY=0.5;exitDx=0;exitDy=0;exitPerimeter=0;entryX=0.758;entryY=0.04;entryDx=0;entryDy=0;entryPerimeter=0;endArrow=none;endFill=0;" edge="1" parent="1" source="2bkhUdakvjU-Ax5H8vHE-82" target="2bkhUdakvjU-Ax5H8vHE-101">
          <mxGeometry relative="1" as="geometry" />
        </mxCell>
        <mxCell id="2bkhUdakvjU-Ax5H8vHE-109" style="rounded=0;orthogonalLoop=1;jettySize=auto;html=1;exitX=1;exitY=0.5;exitDx=0;exitDy=0;entryX=0.03;entryY=0.64;entryDx=0;entryDy=0;entryPerimeter=0;dashed=1;" edge="1" parent="1" source="2bkhUdakvjU-Ax5H8vHE-61" target="2bkhUdakvjU-Ax5H8vHE-99">
          <mxGeometry relative="1" as="geometry" />
        </mxCell>
        <mxCell id="2bkhUdakvjU-Ax5H8vHE-110" style="rounded=0;orthogonalLoop=1;jettySize=auto;html=1;exitX=1;exitY=0.5;exitDx=0;exitDy=0;entryX=0.03;entryY=0.24;entryDx=0;entryDy=0;entryPerimeter=0;dashed=1;" edge="1" parent="1" source="2bkhUdakvjU-Ax5H8vHE-57" target="2bkhUdakvjU-Ax5H8vHE-99">
          <mxGeometry relative="1" as="geometry" />
        </mxCell>
        <mxCell id="2bkhUdakvjU-Ax5H8vHE-121" value="iniciar sesion" style="ellipse;whiteSpace=wrap;html=1;" vertex="1" parent="1">
          <mxGeometry x="160" y="420" width="100" height="50" as="geometry" />
        </mxCell>
        <mxCell id="2bkhUdakvjU-Ax5H8vHE-122" style="rounded=0;orthogonalLoop=1;jettySize=auto;html=1;exitX=0.5;exitY=0.5;exitDx=0;exitDy=0;exitPerimeter=0;entryX=0.077;entryY=0.257;entryDx=0;entryDy=0;entryPerimeter=0;endArrow=none;endFill=0;" edge="1" parent="1" source="2bkhUdakvjU-Ax5H8vHE-71" target="2bkhUdakvjU-Ax5H8vHE-121">
          <mxGeometry relative="1" as="geometry" />
        </mxCell>
        <mxCell id="2bkhUdakvjU-Ax5H8vHE-123" style="rounded=0;orthogonalLoop=1;jettySize=auto;html=1;exitX=1;exitY=0.5;exitDx=0;exitDy=0;entryX=0.058;entryY=0.337;entryDx=0;entryDy=0;entryPerimeter=0;" edge="1" parent="1" source="2bkhUdakvjU-Ax5H8vHE-121" target="2bkhUdakvjU-Ax5H8vHE-101">
          <mxGeometry relative="1" as="geometry" />
        </mxCell>
        <mxCell id="2bkhUdakvjU-Ax5H8vHE-124" value="&amp;lt;&amp;lt;include&amp;gt;&amp;gt;" style="edgeLabel;html=1;align=center;verticalAlign=middle;resizable=0;points=[];" vertex="1" connectable="0" parent="2bkhUdakvjU-Ax5H8vHE-123">
          <mxGeometry x="0.3013" y="1" relative="1" as="geometry">
            <mxPoint as="offset" />
          </mxGeometry>
        </mxCell>
      </root>
    </mxGraphModel>
  </diagram>
</mxfile>
